<svg xmlns="http://www.w3.org/2000/svg"  viewBox="0 0 48 48" width="480px" height="480px"><path fill="#1e4384" d="M14.59,42.979c0,0-9.527,2.489-10.867,2.17c0,0-4.404-5.17-0.894-24.255S21.723,1.553,26.957,2.191 s12.83,5.553,14.809,12.766l3.574,9.766c0,0,1.468,5.936,1.277,9.702c-0.191,3.766-1.149,8.043-1.149,8.043l-1.851,1.66 l-11.426-0.319l-2.106-0.638l-4.66,1.468l-1.915,0.957l-1.596,0.064l-3.255-1.787L14.59,42.979z"/><polygon fill="#fcbf95" points="20.574,39.101 19.473,41.949 21.101,45.324 22.585,45.875 24.859,44.774 27.324,41.83 26.511,38.598"/><path fill="#fcbf95" d="M10,24c0,0-4-2-5,0s0.782,7.848,6.359,6.412c0,0,3.926,8.713,13.261,8.162 c0,0,6.367-1.293,9.239-7.851c0,0,1.963,2.25,5.074-3.734c0,0,0.934-4.859-3.806-2.298l-0.168-2.226c0,0-8.449-3.71-8.473-5.529 c0,0-1.077,5.098-5.601,6.487l-0.383-6.941C20.503,16.481,15.176,23.069,10,24z"/><path fill="#d6e5e5" d="M19.521,33.452c0,0,3.16-2.106,7.803-1.197c0,0,0.239,2.585-2.92,2.777 C24.404,35.032,20.479,35.846,19.521,33.452z"/><polygon fill="#d6e5e5" points="20.383,38.144 20.527,40.25 19.282,42.117 20.957,45.133 14.59,42.979 16.601,39.293 19.33,37.665"/><polygon fill="#d6e5e5" points="26.176,38.479 27.229,41.543 25.17,44.75 29.431,43.41 31.777,43.505 28.856,38.622 27.037,37.904"/><path fill="#010101" d="M9.106,27.63C9.076,27.656,9.055,27.677,9.106,27.63L9.106,27.63z"/><path fill="#010101" d="M15.613,27.425c0.184,0.115,0.395,0.194,0.636,0.217c0.094,0.009,0.185,0.001,0.276-0.011 c0.02,0,0.04,0.005,0.061,0.004c0.535-0.027,1.063-0.262,1.405-0.681c0.34-0.416,0.523-0.963,0.468-1.502 c-0.059-0.579-0.339-1.07-0.725-1.497c-0.377-0.417-0.839-0.861-1.429-0.894c-0.055-0.003-0.116,0.006-0.173,0.008 c-0.177-0.08-0.365-0.126-0.566-0.08c-0.128,0.029-0.233,0.083-0.325,0.147c-0.439,0.102-0.828,0.351-1.045,0.766 c-0.012,0.022-0.014,0.051-0.025,0.074c-0.257,0.308-0.432,0.679-0.442,1.093c-0.007,0.271,0.082,0.53,0.209,0.767 c0.068,0.327,0.22,0.62,0.458,0.855C14.667,27.13,15.101,27.397,15.613,27.425z"/><path fill="#010101" d="M28.634,27.635c1.465,0.405,3.101-0.676,3.171-2.22c0.031-0.697-0.278-1.378-0.786-1.85 c-0.224-0.296-0.539-0.511-0.959-0.557c-0.119-0.013-0.226,0-0.334,0.012c-0.023,0-0.046-0.01-0.069-0.009 c-0.006,0-0.012,0.002-0.018,0.002c-0.399-0.209-0.831-0.251-1.237,0.083c-0.16,0.132-0.265,0.312-0.349,0.506 C26.851,24.677,26.886,27.152,28.634,27.635z"/><path fill="#010101" d="M22.608,30.275c0.273-0.088,0.412-0.344,0.353-0.622c-0.011-0.049-0.018-0.099-0.026-0.149 c-0.029-0.247-0.027-0.495,0.002-0.741c0.022-0.132,0.047-0.263,0.085-0.391c0.076-0.253-0.091-0.562-0.353-0.622 c-0.272-0.062-0.541,0.082-0.622,0.353c-0.176,0.591-0.19,1.217-0.061,1.819C22.041,30.18,22.358,30.355,22.608,30.275z"/><path fill="#010101" d="M13.954,27.887c-0.117-0.062-0.259-0.093-0.39-0.051c-0.04,0.017-0.08,0.034-0.121,0.051 c-0.076,0.045-0.136,0.105-0.181,0.181c-0.187,0.263-0.373,0.526-0.56,0.789c-0.037,0.058-0.057,0.121-0.06,0.188 c-0.015,0.067-0.012,0.134,0.009,0.202c0.032,0.117,0.123,0.244,0.232,0.302c0.117,0.062,0.259,0.093,0.389,0.051 c0.04-0.017,0.081-0.034,0.121-0.051c0.076-0.045,0.136-0.105,0.181-0.181c0.187-0.263,0.373-0.526,0.56-0.789 c0.037-0.058,0.057-0.121,0.06-0.188c0.015-0.067,0.012-0.134-0.009-0.202C14.154,28.072,14.064,27.945,13.954,27.887z"/><path fill="#010101" d="M15.542,28.56c-0.108-0.063-0.268-0.09-0.389-0.051c-0.27,0.087-0.416,0.345-0.353,0.622 c0.004,0.019,0.007,0.038,0.01,0.057c0.013,0.118,0.011,0.237,0,0.356c-0.018,0.096-0.038,0.192-0.071,0.285 c-0.043,0.117-0.01,0.285,0.051,0.389c0.061,0.105,0.182,0.205,0.302,0.232c0.129,0.029,0.275,0.023,0.389-0.051 c0.034-0.026,0.068-0.053,0.102-0.079c0.063-0.063,0.106-0.137,0.13-0.223c0.144-0.393,0.154-0.83,0.061-1.235 C15.747,28.741,15.647,28.621,15.542,28.56z"/><path fill="#010101" d="M17.892,29.758c-0.095-0.232-0.159-0.474-0.196-0.721c-0.004-0.043-0.01-0.086-0.012-0.129 c-0.008-0.134-0.051-0.261-0.148-0.357c-0.088-0.088-0.232-0.154-0.357-0.148c-0.131,0.006-0.266,0.049-0.357,0.148 c-0.088,0.096-0.156,0.223-0.148,0.357c0.029,0.498,0.153,0.967,0.37,1.415c0.053,0.109,0.189,0.201,0.302,0.232 c0.121,0.033,0.282,0.018,0.389-0.051c0.108-0.07,0.203-0.173,0.232-0.302c0.032-0.138,0.011-0.262-0.051-0.39 C17.908,29.795,17.9,29.777,17.892,29.758z"/><path fill="#010101" d="M28.225,28.306c-0.279,0.013-0.5,0.222-0.505,0.505c-0.001,0.034-0.005,0.068-0.007,0.101 c-0.02,0.122-0.054,0.241-0.098,0.357c-0.054,0.114-0.114,0.225-0.191,0.325c0.018-0.023,0.036-0.047,0.054-0.07 c-0.047,0.045-0.082,0.097-0.102,0.158c-0.032,0.06-0.046,0.125-0.044,0.195c0,0.124,0.055,0.272,0.148,0.357 c0.096,0.088,0.223,0.154,0.357,0.148c0.125-0.006,0.275-0.046,0.357-0.148c0.086-0.108,0.171-0.217,0.239-0.337 s0.123-0.249,0.171-0.378c0.083-0.224,0.121-0.47,0.126-0.708c0.003-0.128-0.058-0.268-0.148-0.357 C28.494,28.366,28.351,28.3,28.225,28.306z"/><path fill="#010101" d="M30.623,28.777c-0.019-0.117-0.134-0.245-0.232-0.302c-0.108-0.063-0.268-0.09-0.39-0.051 c-0.122,0.04-0.24,0.115-0.302,0.232c-0.067,0.127-0.074,0.248-0.051,0.389c0.068,0.419,0.135,0.838,0.203,1.257 c0.019,0.117,0.134,0.245,0.232,0.302c0.108,0.063,0.268,0.09,0.389,0.051c0.122-0.04,0.24-0.115,0.302-0.232 c0.067-0.127,0.074-0.248,0.051-0.39C30.758,29.615,30.691,29.196,30.623,28.777z"/><path fill="#010101" d="M31.461,27.981c-0.108,0.07-0.203,0.173-0.232,0.302c-0.029,0.128-0.025,0.277,0.051,0.39 c0.194,0.29,0.388,0.58,0.583,0.87c0.074,0.11,0.172,0.196,0.302,0.232c0.121,0.033,0.282,0.018,0.389-0.051 c0.108-0.07,0.203-0.173,0.232-0.302c0.029-0.128,0.025-0.277-0.051-0.389c-0.194-0.29-0.388-0.58-0.583-0.87 c-0.074-0.11-0.172-0.196-0.302-0.232C31.729,27.897,31.568,27.912,31.461,27.981z"/><path fill="#010101" d="M21.296,35.431c1.338,0.292,2.841,0.301,4.171-0.03c0.64-0.159,1.328-0.416,1.773-0.926 c0.508-0.584,0.556-1.34,0.539-2.079c0-0.002-0.001-0.004-0.001-0.006c0.283-0.248,0.176-0.867-0.328-0.906 c-1.469-0.115-2.939-0.047-4.393,0.19c-0.726,0.119-1.445,0.283-2.151,0.492c-0.582,0.172-1.467,0.321-1.704,0.969 C18.749,34.372,20.333,35.22,21.296,35.431z M20.971,33.201c0.68-0.21,1.374-0.379,2.074-0.505 c1.228-0.221,2.478-0.287,3.723-0.235c0.012,0.605-0.001,1.211-0.562,1.575c-0.533,0.345-1.236,0.475-1.856,0.541 c-0.711,0.076-1.434,0.051-2.144-0.022c-0.544-0.056-1.131-0.156-1.594-0.464c-0.132-0.088-0.507-0.36-0.464-0.558 C20.183,33.368,20.806,33.252,20.971,33.201z"/><path fill="#010101" d="M44.326,20.178c-1.236-3.801-2.631-7.659-5.055-10.885C34.717,3.231,26.905,0.328,19.486,1.77 c-3.84,0.746-7.45,2.594-10.301,5.272C6.24,9.808,4.257,13.343,3.136,17.205c-1.183,4.077-1.758,8.431-2.029,12.661 c-0.269,4.191-0.069,8.462,1.046,12.528c0.28,1.02,0.621,2.02,1.015,3.001c0.094,0.234,0.242,0.34,0.487,0.371 c1.766,0.223,3.456-0.369,5.082-0.989c1.588-0.605,3.274-1.314,5.007-1.112c0.131,0.123,0.317,0.189,0.483,0.128 c0.655-0.241,1.303-0.094,1.953,0.094c0.608,0.176,1.213,0.365,1.813,0.566c1.245,0.416,2.452,0.923,3.532,1.678 c0.113,0.079,0.226,0.096,0.329,0.078c0.04,0.025,0.08,0.051,0.129,0.059c0.547,0.094,1.092,0.047,1.605-0.137 c0.135,0.074,0.301,0.091,0.473-0.006c2.178-1.233,4.644-2.586,7.22-2.054c0.08,0.117,0.203,0.208,0.378,0.226 c2.313,0.239,4.634,0.394,6.959,0.456c1.136,0.03,2.276,0.056,3.412,0.024c0.917-0.026,1.883-0.135,2.671-0.644 c1.42-0.917,1.781-2.679,1.954-4.242c0.245-2.213,0.431-4.457,0.407-6.685C47.014,28.715,45.703,24.412,44.326,20.178z M14.946,42.652c0.928-1.801,2.373-3.316,4.119-4.347c0.055-0.033,0.092-0.074,0.128-0.115c0.233,0.085,0.465,0.169,0.701,0.243 c0.206,0.697,0.117,1.371-0.231,2.005c-0.341,0.621-0.73,1.225-0.658,1.966c0.06,0.618,0.374,1.144,0.735,1.632 c-0.527-0.22-1.063-0.42-1.605-0.599C17.16,43.116,16.025,42.642,14.946,42.652z M9.438,24.454 c0.009,0.464,0.038,0.926,0.09,1.386c-0.598-0.398-1.272-0.681-1.982-0.802c-0.26-0.044-0.557,0.069-0.622,0.353 c-0.056,0.245,0.074,0.574,0.353,0.622c0.332,0.057,0.653,0.149,0.966,0.271c0.017,0.007,0.024,0.009,0.029,0.011 c-0.003-0.001-0.004-0.001,0.012,0.006c0.038,0.017,0.076,0.034,0.114,0.053c0.076,0.036,0.15,0.074,0.224,0.114 c0.079,0.043,0.154,0.093,0.23,0.14c-0.43,0.245-0.806,0.586-1.067,1.003c-0.141,0.224-0.055,0.567,0.181,0.692 c0.248,0.131,0.542,0.058,0.692-0.181c0.032-0.051,0.065-0.1,0.1-0.148c0.001-0.002,0,0,0.002-0.002 c0.016-0.02,0.033-0.04,0.05-0.059c0.08-0.091,0.166-0.176,0.259-0.254c0.02-0.017,0.041-0.032,0.06-0.049 c-0.013,0.012-0.016,0.014-0.024,0.022c0.009-0.008,0.019-0.016,0.026-0.021c0.049-0.035,0.1-0.068,0.152-0.1 c0.08-0.048,0.164-0.087,0.248-0.126c0.068-0.027,0.14-0.038,0.209-0.058c0.014,0.015,0.027,0.031,0.041,0.046 c0.214,0.983,0.526,1.942,0.929,2.863c-2.29,0.689-4.351-1.302-5.082-3.36c-0.226-0.635-0.306-1.286-0.215-1.956 c0.039-0.286,0.092-0.605,0.205-0.874c0.123-0.292,0.334-0.377,0.634-0.427C7.362,23.43,8.549,23.772,9.438,24.454z M11.035,28.221c0.199-0.15,0.27-0.435,0.14-0.655c-0.136-0.231-0.295-0.446-0.465-0.653c-0.171-0.858-0.259-1.732-0.269-2.611 c0.013-0.002,0.023,0.002,0.036,0c1.95-0.419,3.659-1.329,5.206-2.497c0.089,0.084,0.207,0.138,0.344,0.144 c0.048,0.002,0.095,0.008,0.142,0.013c0.205,0.032,0.404,0.089,0.597,0.165c0.158,0.072,0.311,0.153,0.453,0.254 c0.101,0.072,0.274,0.083,0.39,0.051c0.117-0.032,0.244-0.123,0.302-0.232c0.062-0.117,0.093-0.259,0.051-0.389 c-0.043-0.131-0.12-0.222-0.232-0.302c-0.327-0.232-0.702-0.386-1.091-0.477c1.234-1.055,2.367-2.251,3.44-3.46 c-0.063,2.058,0.05,4.111,0.346,6.156c0.051,0.355,0.483,0.419,0.743,0.302c2.521-1.137,4.491-3.288,5.449-5.862 c0.653,0.868,1.593,1.491,2.574,2.012c0.046,0.024,0.146,0.075,0.271,0.138c-0.884,0.081-1.719,0.378-2.377,1.074 c-0.447,0.473,0.267,1.189,0.715,0.715c1.049-1.109,2.727-0.856,4.068-0.586c1.366,0.688,2.729,1.393,2.697,1.461 c-0.111,0.237-0.031,0.459,0.118,0.604c-0.226,3.461-1.056,6.97-3.073,9.846c-1.737,2.477-4.442,4.373-7.473,4.779 c-0.073-0.053-0.159-0.093-0.271-0.097c-3.565-0.132-7.028-1.638-9.52-4.201C12.789,32.311,11.67,30.341,11.035,28.221z M35.553,25.218c0.662-0.429,1.711-1.152,2.501-0.584c0.369,0.265,0.403,0.766,0.417,1.182c0.019,0.548,0.013,1.098-0.177,1.619 c-0.349,0.959-1.134,1.809-1.863,2.499c-0.345,0.326-0.739,0.69-1.218,0.792c-0.282,0.06-0.733-0.001-0.856-0.313 c-0.006-0.015-0.017-0.023-0.024-0.037c0.192-0.515,0.357-1.04,0.505-1.571c0.01-0.01,0.024-0.012,0.033-0.023 c0.221-0.266,0.456-0.517,0.702-0.759c0.028,0.029,0.06,0.055,0.086,0.086c0.078,0.107,0.145,0.221,0.2,0.342 c0.037,0.099,0.072,0.199,0.092,0.303c0.024,0.119,0.13,0.242,0.232,0.302c0.108,0.063,0.268,0.09,0.39,0.051 c0.122-0.04,0.24-0.115,0.302-0.232c0.066-0.125,0.079-0.25,0.051-0.39c-0.056-0.277-0.169-0.552-0.321-0.791 c-0.079-0.124-0.172-0.241-0.27-0.351c0.175-0.14,0.347-0.268,0.575-0.422c0.272-0.183,0.553-0.352,0.841-0.509 c0.233-0.126,0.326-0.467,0.181-0.692c-0.152-0.236-0.443-0.316-0.692-0.181c-0.709,0.385-1.367,0.86-1.971,1.396 c0.107-0.568,0.198-1.138,0.267-1.711C35.544,25.22,35.548,25.221,35.553,25.218z M22.234,45.293 c-0.048-0.007-0.095-0.009-0.141-0.008c-0.468-0.513-0.924-1.039-1.353-1.586c-0.39-0.497-0.881-1.117-0.691-1.788 c0.174-0.617,0.633-1.118,0.825-1.736c0.005-0.015,0.006-0.03,0.01-0.045c0.623,0.486,1.467,0.474,2.271,0.416 c1.015-0.072,2.2,0.236,2.863-0.764c0.059-0.088,0.069-0.193,0.058-0.295c0.023-0.013,0.048-0.022,0.071-0.035 c0.022,0.131,0.048,0.262,0.085,0.396c0.154,0.558,0.481,1.169,0.407,1.763c-0.042,0.337-0.266,0.596-0.488,0.837 c-0.287,0.313-0.581,0.62-0.871,0.929c-0.514,0.548-1.027,1.095-1.541,1.643c-0.083,0.001-0.166,0.015-0.247,0.058 c-0.046,0.024-0.093,0.045-0.14,0.067c-0.177,0.07-0.36,0.116-0.548,0.147C22.615,45.312,22.425,45.317,22.234,45.293z M26.193,43.892c0.508-0.514,1.091-1.048,1.342-1.721c0.227-0.609,0.09-1.264-0.098-1.863c-0.159-0.508-0.501-1.193-0.26-1.724 c0.014-0.03,0.013-0.059,0.021-0.089c1.054,0.329,1.735,1.285,2.232,2.23c0.393,0.748,0.739,1.516,1.179,2.227 C29.081,42.849,27.603,43.269,26.193,43.892z M46.01,35.288c-0.051,1.103-0.143,2.204-0.242,3.304 c-0.079,0.869-0.135,1.747-0.344,2.597c-0.186,0.758-0.499,1.529-1.145,2.007c-0.793,0.587-1.853,0.572-2.796,0.577 c-2.2,0.013-4.402-0.058-6.597-0.208c-0.92-0.063-1.837-0.148-2.755-0.238c-0.011-0.014-0.016-0.03-0.029-0.043 c-1.518-1.594-1.888-4.345-3.858-5.453c1.556-0.89,2.924-2.119,4.01-3.576c0.668-0.896,1.207-1.865,1.658-2.875 c0.488,0.379,1.168,0.481,1.794,0.253c1.014-0.369,1.839-1.31,2.491-2.135c0.753-0.953,1.264-1.93,1.289-3.166 c0.02-0.999-0.082-2.174-1.097-2.668c-0.938-0.457-1.882-0.155-2.73,0.311c0.013-0.165,0.032-0.33,0.042-0.495 c0.011-0.176-0.058-0.3-0.162-0.381c0.048-0.541-0.354-0.965-0.864-1.262c-1.042-0.608-2.173-1.103-3.249-1.649 c-1.58-0.802-3.816-1.607-4.461-3.433c-0.157-0.445-0.849-0.515-0.975,0c-0.635,2.599-2.346,4.777-4.67,6.053 c-0.274-2.206-0.332-4.431-0.171-6.649c0.031-0.427-0.582-0.681-0.863-0.357c-2.751,3.169-5.795,6.605-10.08,7.526 c-0.157,0.034-0.258,0.119-0.313,0.226c-0.847-0.592-1.823-0.953-2.869-0.99c-0.57-0.02-1.256,0.019-1.746,0.34 c-0.497,0.326-0.682,0.91-0.792,1.465c-0.48,2.4,0.821,5.053,2.894,6.325c1.107,0.679,2.522,0.902,3.756,0.462 c0.657,1.266,1.491,2.441,2.493,3.472c1.277,1.314,2.798,2.356,4.45,3.112c-1.852,1.218-3.308,2.926-4.245,4.932 c-3.461-0.327-6.399,2.336-9.822,2.11c-2.867-7.426-2.24-15.729-0.809-23.407C3.926,17.494,5.1,13.713,7.46,10.497 c2.231-3.039,5.341-5.42,8.862-6.768c6.864-2.629,14.79-1.21,20.135,3.898c2.739,2.618,4.463,6.04,5.769,9.552 c1.406,3.779,2.718,7.72,3.42,11.696C46.022,30.998,46.109,33.137,46.01,35.288z"/><path fill="#010101" d="M14.627,5.951C10.5,8.64,6.79,12.666,6.757,17.875c-0.004,0.659,0.929,0.624,1,0 c0.026-0.228,0.052-0.456,0.078-0.685c0.01-0.089-0.004-0.162-0.03-0.226c0.432-4.399,3.745-7.816,7.326-10.15 C15.669,6.464,15.168,5.598,14.627,5.951z"/><g><path fill="#010101" d="M19.403,8.064c-0.136,2.626-1.404,5.015-2.869,7.139c-1.452,2.105-3.22,3.973-5.208,5.578 c-0.501,0.404,0.211,1.108,0.707,0.707c2.111-1.705,3.961-3.71,5.484-5.957c1.515-2.234,2.744-4.731,2.886-7.468 C20.436,7.421,19.436,7.423,19.403,8.064L19.403,8.064z"/></g><g><path fill="#010101" d="M22.455,6.154c0.822,2.167,1.499,4.385,2.028,6.642c0.147,0.626,1.111,0.361,0.964-0.266 c-0.529-2.257-1.206-4.475-2.028-6.642C23.194,5.292,22.226,5.55,22.455,6.154L22.455,6.154z"/></g><g><path fill="#010101" d="M25.604,5.335c2.373,6.218,8.343,9.683,14.301,11.852c0.606,0.22,0.867-0.746,0.266-0.964 c-5.589-2.034-11.369-5.3-13.603-11.153C26.341,4.474,25.374,4.732,25.604,5.335L25.604,5.335z"/></g><g><path fill="#010101" d="M7.332,34.842c0.179-0.211,0.263-0.448,0.175-0.72c-0.165-0.515-1.013-0.454-0.982,0.133 c0.113,2.139,1.239,4.123,3.013,5.322c0.224,0.151,0.554,0.043,0.684-0.179c0.144-0.246,0.045-0.532-0.179-0.684 c-1.468-0.993-2.424-2.69-2.517-4.459c-0.327,0.044-0.655,0.089-0.982,0.133c-0.002-0.027-0.004-0.054-0.005-0.081 c0.043-0.074,0.086-0.147,0.129-0.221c-0.014,0.016-0.028,0.032-0.041,0.049c-0.175,0.206-0.202,0.505,0,0.707 C6.804,35.021,7.156,35.048,7.332,34.842L7.332,34.842z"/></g><g><path fill="#010101" d="M36.704,37.803c0.552-0.916,1.103-1.832,1.655-2.747c0.135-0.224,0.057-0.559-0.179-0.684 c-0.242-0.128-0.54-0.06-0.684,0.179c-0.552,0.916-1.103,1.832-1.655,2.747c-0.135,0.224-0.057,0.559,0.179,0.684 C36.262,38.11,36.56,38.042,36.704,37.803L36.704,37.803z"/></g></svg>